<svg width="3135" height="3135" xmlns="http://www.w3.org/2000/svg" xmlns:xlink="http://www.w3.org/1999/xlink" overflow="hidden"><defs><clipPath id="clip0"><path d="M898-267 4033-267 4033 2868 898 2868Z" fill-rule="evenodd" clip-rule="evenodd"/></clipPath></defs><g clip-path="url(#clip0)" transform="translate(-898 267)"><path d="M0 221.572 926 0 926 520 8.35061 520C5.59766 420.524 2.75295 321.048 0 221.572Z" fill="#EB001D" fill-rule="evenodd" transform="matrix(1 0 0 -1 1159 2300)"/><path d="M3691 2027.73C3535.67 1967.97 3444.19 1913.53 3320.78 1856.43 3209.84 1805.85 3096.25 1724.68 3071.76 1563.69 3053.88 1428.72 3051.97 1354.95 3050.05 1235.94 3044.42 1116.09 3091.98 1114.64 3144.87 1103.87 3218.5 1097.74 3294.79 1094.26 3369.75 1089.46 3394.79 1088.06 3401.22 1074.69 3390.35 1054.67 3376.48 1017.88 3347.98 998.378 3283.56 986.861L3188.52 972.228C3131.62 954.572 3166.49 939.577 3202.69 939.215 3441.01 923.538 3510.41 913.181 3546.56 1023.89 3553.42 1042.8 3558.95 1080.35 3585.76 1011.46 3597.8 969.724 3609.84 938.629 3613.9 890.239 3623.16 766.853 3589.86 700.67 3468.78 669.076L3343.82 635.388C3366.9 514.288 3278.26 482.318 3196.27 462.323 3116.95 446.141 3044.28 439.27 2962.31 439.052L2999.53 178 2699.33 459.887C2474.51 495.621 2387.81 595.536 2292.41 753.106 2272.73 786.661 2297.65 784.319 2316.04 787.415L2354.59 793.942C2397.43 793.707 2366.32 820.669 2342.82 829.136L2257.12 856.031C2223.48 874.948 2211.59 889.514 2193.17 918.221 2130.7 996.394 2100.85 1068.04 2054.68 1142.95 2036.03 1176.01 2054.35 1184.04 2081.38 1184.47L2138.14 1185.64C2168.04 1185.7 2165.91 1207.81 2137.03 1220.57L2046.18 1256.27C2002.6 1274.48 1969.29 1297.73 1945.06 1354.63L1816.56 1629.29C1797.83 1681.66 1812.64 1675.31 1834.16 1680.7L1962.66 1687.13C1897.62 1870.26 1835.94 2206.05 2069.45 2412.67L1820.2 2614.1C2513.41 2954.77 3509.86 2585.04 3691 2027.73Z" fill="#EB001D" fill-rule="evenodd"/><path d="M1398 1778.4C1260.24 1779.8 1137.16 1718.09 1098 1669L1139.96 1892 1398 1778.4Z" fill="#EB001D" fill-rule="evenodd"/><path d="M899 1300C899 434.57 1600.35-267 2465.5-267 3330.65-267 4032 434.57 4032 1300 4032 2165.43 3330.65 2867 2465.5 2867 1600.35 2867 899 2165.43 899 1300ZM1048.26 1300C1048.26 2083 1682.78 2717.74 2465.5 2717.74 3248.22 2717.74 3882.74 2083 3882.74 1300 3882.74 517.001 3248.22-117.744 2465.5-117.744 1682.78-117.744 1048.26 517.001 1048.26 1300Z" fill="#EB001D" fill-rule="evenodd"/><path d="M1553 1280 2017.33 464.089 2171.72 463C2193.48 463 2197.84 479.332 2188.04 495.663L1763.74 1240.37C1742.96 1275.68 1737.9 1279.57 1689.76 1279.57L1553 1280Z" fill="#EB001D" fill-rule="evenodd"/><path d="M1514.4 1009 1426.02 624.527C1420.31 600.745 1421.18 596.782 1397 596.782L1538.15 573 1769 595.46C1757.13 594.58 1743.94 604.268 1737.34 616.6L1514.4 1009Z" fill="#EB001D" fill-rule="evenodd"/><rect x="1167" y="464" width="918" height="132" fill="#EB001D"/><rect x="931" y="1149" width="753" height="131" fill="#EB001D"/><path d="M1613 1168 1944.9 581 2014.98 581 1683.08 1168Z" fill="#EB001D" fill-rule="evenodd"/><path d="M1230.32 582.323 1364 1160.39 959 1167 1031.79 838.946 1121.79 581 1230.32 582.323Z" fill="#EB001D" fill-rule="evenodd"/><path d="M1362 466.593C1341.07 468.469 1329.72 448.414 1346.46 432L1308 468 1362 466.593Z" fill="#EB001D" fill-rule="evenodd"/><path d="M1047.33 1315C1045.26 1298.11 1047.07 1286 1068 1280.24L1015 1279C1028.68 1288.48 1023.7 1305.52 1047.33 1315Z" fill="#EB001D" fill-rule="evenodd"/><path d="M3075.6 629.031C3090.58 617.739 3100.12 620.517 3120.54 624.377L3236.82 639.097C3258.51 640.562 3260.62 648.521 3252.96 656.479L3219.62 699.145C3201.13 716.902 3179.38 718.425 3160.89 710.207L3051.37 678.603C3034.96 671.979 3025.06 665.355 3041.26 652.237L3075.6 629.031Z" fill="#FFFFFF" fill-rule="evenodd"/></g></svg>